<svg width="301" height="62" viewBox="0 0 301 62" fill="none" xmlns="http://www.w3.org/2000/svg">
<path d="M19.6066 61.1019L10.0314 33.3316H9.82667C9.87216 33.9532 9.92523 34.8024 9.98588 35.8789C10.0465 36.9554 10.0996 38.1078 10.1451 39.336C10.1906 40.5641 10.2133 41.7393 10.2133 42.8613V61.1019H5.25514V27.8503H12.9198L22.1311 54.3925H22.2676L31.7973 27.8503H39.4393V61.1019H34.2309V42.5884C34.2309 41.5725 34.2461 40.4732 34.2764 39.2905C34.3219 38.1078 34.3674 36.9858 34.4129 35.9244C34.4735 34.863 34.519 34.0139 34.5493 33.3771H34.3674L24.4283 61.1019H19.6066Z" fill="#424242"/>
<path d="M57.6799 35.4468C59.924 35.4468 61.8496 35.9092 63.4569 36.8341C65.0641 37.7591 66.2999 39.0706 67.1641 40.7688C68.0284 42.4671 68.4605 44.4989 68.4605 46.8642V49.73H51.6528C51.7134 52.1711 52.3654 54.0513 53.6088 55.3705C54.8673 56.6896 56.6261 57.3492 58.8853 57.3492C60.4926 57.3492 61.933 57.1975 63.2067 56.8943C64.4955 56.5759 65.8222 56.1134 67.1869 55.5069V59.851C65.9284 60.4423 64.6471 60.8745 63.3432 61.1474C62.0392 61.4203 60.4774 61.5568 58.6579 61.5568C56.1864 61.5568 54.0106 61.0792 52.1304 60.1239C50.2654 59.1535 48.8022 57.7131 47.7408 55.8026C46.6946 53.8921 46.1715 51.5191 46.1715 48.6837C46.1715 45.8635 46.6491 43.4678 47.6044 41.4967C48.5596 39.5255 49.9015 38.0244 51.63 36.9934C53.3586 35.9623 55.3752 35.4468 57.6799 35.4468ZM57.6799 39.4724C55.9969 39.4724 54.6322 40.0183 53.586 41.11C52.555 42.2017 51.9484 43.8014 51.7665 45.909H63.2294C63.2143 44.6505 63.002 43.536 62.5926 42.5656C62.1984 41.5952 61.5919 40.8371 60.7731 40.2912C59.9695 39.7454 58.9384 39.4724 57.6799 39.4724Z" fill="#424242"/>
<path d="M83.8582 57.2355C84.5557 57.2355 85.2456 57.1748 85.9279 57.0535C86.6102 56.917 87.2319 56.7578 87.7929 56.5759V60.6243C87.2015 60.8821 86.4358 61.1019 85.4958 61.2839C84.5557 61.4658 83.5777 61.5568 82.5618 61.5568C81.1365 61.5568 79.8553 61.3218 78.7181 60.8517C77.5809 60.3665 76.6787 59.5402 76.0115 58.3726C75.3444 57.2051 75.0108 55.5903 75.0108 53.5282V39.9956H71.5765V37.6074L75.261 35.7197L77.0123 30.3294H80.3784V35.9244H87.5882V39.9956H80.3784V53.46C80.3784 54.7336 80.6968 55.6813 81.3336 56.303C81.9704 56.9246 82.812 57.2355 83.8582 57.2355Z" fill="#424242"/>
<path d="M102.281 57.2355C102.978 57.2355 103.668 57.1748 104.35 57.0535C105.033 56.917 105.654 56.7578 106.215 56.5759V60.6243C105.624 60.8821 104.858 61.1019 103.918 61.2839C102.978 61.4658 102 61.5568 100.984 61.5568C99.5591 61.5568 98.2778 61.3218 97.1406 60.8517C96.0035 60.3665 95.1013 59.5402 94.4341 58.3726C93.767 57.2051 93.4334 55.5903 93.4334 53.5282V39.9956H89.9991V37.6074L93.6836 35.7197L95.4349 30.3294H98.801V35.9244H106.011V39.9956H98.801V53.46C98.801 54.7336 99.1194 55.6813 99.7562 56.303C100.393 56.9246 101.235 57.2355 102.281 57.2355Z" fill="#424242"/>
<path d="M121.204 35.4468C124.388 35.4468 126.791 36.1518 128.414 37.562C130.051 38.9721 130.87 41.1707 130.87 44.1577V61.1019H127.072L126.048 57.5311H125.866C125.154 58.4409 124.418 59.1914 123.66 59.7828C122.902 60.3741 122.023 60.8138 121.022 61.1019C120.036 61.4052 118.831 61.5568 117.405 61.5568C115.904 61.5568 114.563 61.2839 113.38 60.738C112.197 60.177 111.265 59.3279 110.582 58.1907C109.9 57.0535 109.559 55.6131 109.559 53.8694C109.559 51.2765 110.522 49.3281 112.447 48.0242C114.388 46.7202 117.315 46 121.226 45.8635L125.593 45.7043V44.3851C125.593 42.6414 125.184 41.3981 124.365 40.6551C123.562 39.9122 122.424 39.5407 120.954 39.5407C119.695 39.5407 118.474 39.7226 117.292 40.0865C116.109 40.4504 114.957 40.8977 113.835 41.4284L112.106 37.6529C113.334 37.0009 114.729 36.4702 116.291 36.0609C117.868 35.6515 119.506 35.4468 121.204 35.4468ZM125.571 49.0704L122.318 49.1841C119.65 49.2751 117.777 49.73 116.7 50.5487C115.624 51.3675 115.086 52.4896 115.086 53.9148C115.086 55.1582 115.457 56.0679 116.2 56.6441C116.943 57.2051 117.921 57.4856 119.134 57.4856C120.984 57.4856 122.515 56.9625 123.728 55.9163C124.956 54.8549 125.571 53.3008 125.571 51.2538V49.0704Z" fill="#424242"/>
<path d="M151.476 35.4468C154.311 35.4468 156.517 36.1822 158.094 37.6529C159.686 39.1085 160.483 41.4512 160.483 44.6808V61.1019H155.138V45.6815C155.138 43.7256 154.736 42.2624 153.932 41.292C153.129 40.3064 151.885 39.8136 150.202 39.8136C147.761 39.8136 146.063 40.5641 145.108 42.0652C144.168 43.5663 143.697 45.7422 143.697 48.5928V61.1019H138.353V35.9244H142.515L143.265 39.336H143.561C144.107 38.4565 144.782 37.7363 145.585 37.1753C146.404 36.5991 147.314 36.167 148.315 35.8789C149.33 35.5908 150.384 35.4468 151.476 35.4468Z" fill="#424242"/>
<path d="M177.836 35.4468C181.02 35.4468 183.424 36.1518 185.046 37.562C186.684 38.9721 187.502 41.1707 187.502 44.1577V61.1019H183.704L182.681 57.5311H182.499C181.786 58.4409 181.051 59.1914 180.292 59.7828C179.534 60.3741 178.655 60.8138 177.654 61.1019C176.669 61.4052 175.463 61.5568 174.038 61.5568C172.537 61.5568 171.195 61.2839 170.012 60.738C168.83 60.177 167.897 59.3279 167.215 58.1907C166.532 57.0535 166.191 55.6131 166.191 53.8694C166.191 51.2765 167.154 49.3281 169.08 48.0242C171.021 46.7202 173.947 46 177.859 45.8635L182.226 45.7043V44.3851C182.226 42.6414 181.816 41.3981 180.998 40.6551C180.194 39.9122 179.057 39.5407 177.586 39.5407C176.327 39.5407 175.107 39.7226 173.924 40.0865C172.741 40.4504 171.589 40.8977 170.467 41.4284L168.739 37.6529C169.967 37.0009 171.362 36.4702 172.923 36.0609C174.5 35.6515 176.138 35.4468 177.836 35.4468ZM182.203 49.0704L178.951 49.1841C176.282 49.2751 174.409 49.73 173.333 50.5487C172.256 51.3675 171.718 52.4896 171.718 53.9148C171.718 55.1582 172.09 56.0679 172.832 56.6441C173.575 57.2051 174.553 57.4856 175.766 57.4856C177.616 57.4856 179.148 56.9625 180.361 55.9163C181.589 54.8549 182.203 53.3008 182.203 51.2538V49.0704Z" fill="#424242"/>
<path d="M214.461 52.5274C214.461 54.5137 213.961 56.1816 212.96 57.5311C211.959 58.8654 210.602 59.8737 208.889 60.556C207.176 61.2232 205.235 61.5567 203.067 61.5567C201.717 61.5567 200.489 61.4885 199.382 61.352C198.29 61.2307 197.297 61.064 196.403 60.8517C195.523 60.6394 194.72 60.3968 193.992 60.1239V57.7813C195.174 58.2361 196.539 58.6379 198.086 58.9867C199.647 59.3203 201.346 59.487 203.18 59.487C204.909 59.487 206.44 59.2369 207.775 58.7365C209.124 58.2361 210.185 57.478 210.959 56.4621C211.732 55.4462 212.119 54.165 212.119 52.6184C212.119 51.2537 211.793 50.1393 211.141 49.275C210.504 48.3956 209.541 47.645 208.252 47.0234C206.963 46.3865 205.341 45.7421 203.385 45.0901C202.02 44.6201 200.777 44.1273 199.655 43.6118C198.548 43.0811 197.6 42.4746 196.812 41.7923C196.024 41.0948 195.417 40.2608 194.993 39.2904C194.583 38.3049 194.378 37.1449 194.378 35.8106C194.378 33.9759 194.841 32.4369 195.766 31.1936C196.706 29.9351 197.972 28.9874 199.564 28.3506C201.171 27.6986 202.976 27.3726 204.977 27.3726C206.569 27.3726 208.078 27.5242 209.503 27.8275C210.944 28.1156 212.331 28.5553 213.665 29.1466L212.847 31.1708C211.512 30.5947 210.178 30.1701 208.844 29.8972C207.509 29.6243 206.19 29.4878 204.886 29.4878C203.324 29.4878 201.929 29.7228 200.701 30.1929C199.488 30.6477 198.525 31.3376 197.813 32.2626C197.1 33.1875 196.744 34.355 196.744 35.7651C196.744 37.2207 197.07 38.3958 197.722 39.2904C198.389 40.185 199.329 40.928 200.542 41.5193C201.77 42.1107 203.218 42.6869 204.886 43.2479C206.857 43.915 208.555 44.6201 209.981 45.3631C211.406 46.0909 212.505 47.0158 213.279 48.1378C214.067 49.2599 214.461 50.7231 214.461 52.5274Z" fill="#F54C4C"/>
<path d="M227.676 59.578C228.388 59.578 229.048 59.525 229.654 59.4188C230.276 59.3127 230.822 59.1762 231.292 59.0094V60.9199C230.807 61.0867 230.238 61.2307 229.586 61.352C228.934 61.4885 228.214 61.5567 227.425 61.5567C226.03 61.5567 224.87 61.299 223.946 60.7835C223.021 60.2528 222.323 59.4567 221.853 58.3953C221.383 57.3188 221.148 55.9542 221.148 54.3014V38.2897H217.464V36.9251L221.125 36.22L221.921 30.3976H223.445V36.3792H231.155V38.2897H223.445V54.165C223.445 55.939 223.771 57.2885 224.423 58.2134C225.09 59.1231 226.174 59.578 227.676 59.578Z" fill="#F54C4C"/>
<path d="M257.106 48.7064C257.106 50.6169 256.871 52.3606 256.401 53.9375C255.931 55.4993 255.234 56.8487 254.309 57.9859C253.384 59.1231 252.231 60.0026 250.852 60.6242C249.487 61.2459 247.895 61.5567 246.075 61.5567C244.347 61.5567 242.808 61.2535 241.458 60.647C240.109 60.0253 238.964 59.1459 238.024 58.0087C237.099 56.8715 236.394 55.522 235.909 53.9603C235.424 52.3834 235.181 50.6321 235.181 48.7064C235.181 46.053 235.621 43.771 236.5 41.8605C237.395 39.9348 238.668 38.4641 240.321 37.4482C241.989 36.4171 243.983 35.9016 246.303 35.9016C248.699 35.9016 250.692 36.4474 252.285 37.5391C253.892 38.6157 255.097 40.1168 255.901 42.0424C256.704 43.9681 257.106 46.1894 257.106 48.7064ZM237.546 48.7064C237.546 50.8747 237.857 52.77 238.479 54.3924C239.101 56.0148 240.041 57.2809 241.299 58.1906C242.573 59.1004 244.18 59.5553 246.121 59.5553C248.107 59.5553 249.737 59.1004 251.011 58.1906C252.285 57.2809 253.225 56.0072 253.831 54.3697C254.438 52.7321 254.741 50.8444 254.741 48.7064C254.741 46.6291 254.453 44.7793 253.877 43.1569C253.3 41.5345 252.391 40.2608 251.147 39.3359C249.904 38.3958 248.282 37.9258 246.28 37.9258C243.414 37.9258 241.239 38.881 239.753 40.7915C238.282 42.702 237.546 45.3403 237.546 48.7064Z" fill="#F54C4C"/>
<path d="M273.778 35.9471C274.43 35.9471 275.044 35.985 275.62 36.0608C276.196 36.1366 276.734 36.2427 277.235 36.3792L276.871 38.4944C276.37 38.3579 275.862 38.2594 275.347 38.1987C274.831 38.1229 274.278 38.085 273.687 38.085C272.519 38.085 271.473 38.3049 270.548 38.7446C269.638 39.1843 268.865 39.8135 268.228 40.6323C267.591 41.4511 267.106 42.4367 266.772 43.589C266.439 44.7414 266.272 46.0302 266.272 47.4555V61.1019H263.952V36.3792H265.931L266.158 41.0417H266.295C266.674 40.0865 267.205 39.2298 267.887 38.4717C268.584 37.6984 269.426 37.0843 270.411 36.6294C271.397 36.1745 272.519 35.9471 273.778 35.9471Z" fill="#F54C4C"/>
<path d="M291.45 35.9016C293.557 35.9016 295.308 36.3944 296.703 37.3799C298.114 38.3655 299.16 39.715 299.842 41.4284C300.54 43.1417 300.888 45.1053 300.888 47.319V48.9793H283.034C283.034 52.3758 283.815 54.9837 285.377 56.8033C286.954 58.6228 289.206 59.5325 292.132 59.5325C293.663 59.5325 294.99 59.4112 296.112 59.1686C297.249 58.9109 298.508 58.4787 299.888 57.8722V59.9874C298.675 60.5333 297.462 60.9275 296.249 61.1701C295.036 61.4279 293.641 61.5567 292.064 61.5567C289.562 61.5567 287.462 61.0412 285.764 60.0102C284.081 58.9639 282.807 57.4932 281.943 55.5978C281.093 53.7025 280.669 51.4888 280.669 48.9566C280.669 46.4851 281.078 44.2638 281.897 42.2926C282.731 40.3215 283.944 38.7673 285.536 37.6301C287.143 36.4778 289.115 35.9016 291.45 35.9016ZM291.427 37.8803C289.061 37.8803 287.143 38.6688 285.673 40.2457C284.217 41.8074 283.36 44.0667 283.103 47.0234H298.5C298.5 45.219 298.242 43.6269 297.727 42.2471C297.211 40.8673 296.43 39.7984 295.384 39.0402C294.353 38.267 293.034 37.8803 291.427 37.8803Z" fill="#F54C4C"/>
<path d="M30.6351 12.725C33.7607 14.1062 37.0844 14.9863 40.484 15.3328C45.7432 15.8023 51.8629 23.9735 61.7031 23.6345C71.5434 23.2954 71.3347 20.253 71.3347 20.253C71.4727 20.2744 71.6054 20.3216 71.7259 20.392C72.7691 21.7307 71.865 23.4954 70.8566 24.6341C70.4652 24.8998 70.0523 25.1324 69.6223 25.3296L68.6835 25.6947C66.0057 26.2873 63.258 26.5009 60.5209 26.3292C52.906 26.025 47.0905 20.2443 40.1102 19.9139C33.1299 19.5836 27.1753 19.4358 30.6351 12.725Z" fill="#F2F2F2"/>
<path d="M41.1706 9.44784C39.1191 7.32679 36.3026 6.50967 33.4427 6.25758C34.8596 3.83229 36.6069 1.50262 37.7891 1.0419C40.1883 0.172622 40.1448 3.55412 41.9442 5.22314C43.7436 6.89216 48.4464 5.64908 48.4464 5.64908C46.647 3.04124 47.7163 1.71994 47.7163 1.71994C47.7163 1.71994 49.9851 -1.4964 53.8012 6.06634C57.6174 13.6291 59.0691 13.6378 64.928 15.1329C70.7869 16.6281 70.7522 19.9661 70.7522 19.9661C69.7699 21.6004 66.5101 22.6261 60.1383 22.713C55.1834 22.7739 48.8985 17.819 44.5608 15.4546C43.9424 13.2038 42.7779 11.1405 41.1706 9.44784Z" fill="#F54C4C"/>
<path d="M40.3709 10.204C41.6262 11.5138 42.5944 13.0712 43.2135 14.7765C42.6647 14.5147 42.0779 14.3416 41.4749 14.2636C37.9736 13.7585 34.5135 13.0002 31.1218 11.9948C31.1218 11.195 31.8346 9.32607 32.8604 7.35281C35.5812 7.51797 38.3629 8.17862 40.3709 10.204Z" fill="#F54C4C"/>
<path d="M54.2794 26.4074H11.2327L50.0895 24.6688C50.0895 24.6688 51.8976 25.3469 54.2794 26.4074Z" fill="url(#paint0_linear_105_1205)"/>
<path d="M48.9161 23.956H6.32137L45.1782 22.2174C45.1782 22.2174 46.8385 23.0867 48.9161 23.956Z" fill="url(#paint1_linear_105_1205)"/>
<path d="M43.483 21.5483H0.888306L31.852 19.9662C33.5645 20.7572 42.8571 20.5573 43.483 21.5483Z" fill="url(#paint2_linear_105_1205)"/>
<defs>
<linearGradient id="paint0_linear_105_1205" x1="266.667" y1="31.2295" x2="193.648" y2="32.4477" gradientUnits="userSpaceOnUse">
<stop stop-color="#F43838"/>
<stop offset="1" stop-color="#F45151"/>
</linearGradient>
<linearGradient id="paint1_linear_105_1205" x1="275.579" y1="17.8055" x2="131.166" y2="20.2599" gradientUnits="userSpaceOnUse">
<stop stop-color="#F43838"/>
<stop offset="1" stop-color="#F45151"/>
</linearGradient>
<linearGradient id="paint2_linear_105_1205" x1="38.7155" y1="20.7571" x2="14.9347" y2="22.3371" gradientUnits="userSpaceOnUse">
<stop stop-color="#F43838"/>
<stop offset="1" stop-color="#F45151"/>
</linearGradient>
</defs>
</svg>
