<svg width="301" height="62" viewBox="0 0 301 62" fill="none" xmlns="http://www.w3.org/2000/svg">
<path d="M19.6066 60.7447L10.0314 32.9744H9.82667C9.87216 33.5961 9.92523 34.4452 9.98588 35.5217C10.0465 36.5983 10.0996 37.7506 10.1451 38.9788C10.1906 40.207 10.2133 41.3821 10.2133 42.5041V60.7447H5.25514V27.4931H12.9198L22.1311 54.0353H22.2676L31.7973 27.4931H39.4393V60.7447H34.2309V42.2312C34.2309 41.2153 34.2461 40.116 34.2764 38.9333C34.3219 37.7506 34.3674 36.6286 34.4129 35.5672C34.4735 34.5058 34.519 33.6567 34.5493 33.0199H34.3674L24.4283 60.7447H19.6066Z" fill="white"/>
<path d="M57.6799 35.0896C59.924 35.0896 61.8496 35.552 63.4569 36.477C65.0641 37.4019 66.2999 38.7135 67.1641 40.4117C68.0284 42.1099 68.4605 44.1417 68.4605 46.507V49.3728H51.6528C51.7134 51.814 52.3654 53.6941 53.6088 55.0133C54.8673 56.3324 56.6261 56.992 58.8853 56.992C60.4926 56.992 61.933 56.8404 63.2067 56.5371C64.4955 56.2187 65.8222 55.7562 67.1869 55.1497V59.4938C65.9284 60.0852 64.6471 60.5173 63.3432 60.7902C62.0392 61.0632 60.4774 61.1996 58.6579 61.1996C56.1864 61.1996 54.0106 60.722 52.1304 59.7668C50.2654 58.7963 48.8022 57.3559 47.7408 55.4454C46.6946 53.5349 46.1715 51.162 46.1715 48.3266C46.1715 45.5063 46.6491 43.1106 47.6044 41.1395C48.5596 39.1683 49.9015 37.6672 51.63 36.6362C53.3586 35.6051 55.3752 35.0896 57.6799 35.0896ZM57.6799 39.1153C55.9969 39.1153 54.6322 39.6611 53.586 40.7528C52.555 41.8445 51.9484 43.4442 51.7665 45.5518H63.2294C63.2143 44.2933 63.002 43.1788 62.5926 42.2084C62.1984 41.238 61.5919 40.4799 60.7731 39.934C59.9695 39.3882 58.9384 39.1153 57.6799 39.1153Z" fill="white"/>
<path d="M83.8582 56.8783C84.5557 56.8783 85.2456 56.8176 85.9279 56.6963C86.6102 56.5599 87.2319 56.4007 87.7929 56.2187V60.2671C87.2015 60.5249 86.4358 60.7447 85.4958 60.9267C84.5557 61.1086 83.5777 61.1996 82.5618 61.1996C81.1365 61.1996 79.8553 60.9646 78.7181 60.4946C77.5809 60.0094 76.6787 59.183 76.0115 58.0155C75.3444 56.848 75.0108 55.2331 75.0108 53.171V39.6384H71.5765V37.2503L75.261 35.3625L77.0123 29.9722H80.3784V35.5672H87.5882V39.6384H80.3784V53.1028C80.3784 54.3764 80.6968 55.3241 81.3336 55.9458C81.9704 56.5674 82.812 56.8783 83.8582 56.8783Z" fill="white"/>
<path d="M102.281 56.8783C102.978 56.8783 103.668 56.8176 104.35 56.6963C105.033 56.5599 105.654 56.4007 106.215 56.2187V60.2671C105.624 60.5249 104.858 60.7447 103.918 60.9267C102.978 61.1086 102 61.1996 100.984 61.1996C99.5591 61.1996 98.2778 60.9646 97.1406 60.4946C96.0035 60.0094 95.1013 59.183 94.4341 58.0155C93.767 56.848 93.4334 55.2331 93.4334 53.171V39.6384H89.9991V37.2503L93.6836 35.3625L95.4349 29.9722H98.801V35.5672H106.011V39.6384H98.801V53.1028C98.801 54.3764 99.1194 55.3241 99.7562 55.9458C100.393 56.5674 101.235 56.8783 102.281 56.8783Z" fill="white"/>
<path d="M121.204 35.0896C124.388 35.0896 126.791 35.7946 128.414 37.2048C130.051 38.6149 130.87 40.8135 130.87 43.8005V60.7447H127.072L126.048 57.1739H125.866C125.154 58.0837 124.418 58.8343 123.66 59.4256C122.902 60.0169 122.023 60.4567 121.022 60.7447C120.036 61.048 118.831 61.1996 117.405 61.1996C115.904 61.1996 114.563 60.9267 113.38 60.3808C112.197 59.8198 111.265 58.9707 110.582 57.8335C109.9 56.6963 109.559 55.2559 109.559 53.5122C109.559 50.9194 110.522 48.971 112.447 47.667C114.388 46.363 117.315 45.6428 121.226 45.5063L125.593 45.3471V44.028C125.593 42.2843 125.184 41.0409 124.365 40.2979C123.562 39.555 122.424 39.1835 120.954 39.1835C119.695 39.1835 118.474 39.3654 117.292 39.7293C116.109 40.0933 114.957 40.5406 113.835 41.0712L112.106 37.2957C113.334 36.6438 114.729 36.1131 116.291 35.7037C117.868 35.2943 119.506 35.0896 121.204 35.0896ZM125.571 48.7132L122.318 48.8269C119.65 48.9179 117.777 49.3728 116.7 50.1916C115.624 51.0103 115.086 52.1324 115.086 53.5577C115.086 54.801 115.457 55.7108 116.2 56.2869C116.943 56.848 117.921 57.1285 119.134 57.1285C120.984 57.1285 122.515 56.6053 123.728 55.5591C124.956 54.4977 125.571 52.9436 125.571 50.8966V48.7132Z" fill="white"/>
<path d="M151.476 35.0896C154.311 35.0896 156.517 35.825 158.094 37.2957C159.686 38.7514 160.483 41.094 160.483 44.3236V60.7447H155.138V45.3244C155.138 43.3684 154.736 41.9052 153.932 40.9348C153.129 39.9492 151.885 39.4564 150.202 39.4564C147.761 39.4564 146.063 40.207 145.108 41.7081C144.168 43.2092 143.697 45.385 143.697 48.2356V60.7447H138.353V35.5672H142.515L143.265 38.9788H143.561C144.107 38.0994 144.782 37.3791 145.585 36.8181C146.404 36.2419 147.314 35.8098 148.315 35.5217C149.33 35.2336 150.384 35.0896 151.476 35.0896Z" fill="white"/>
<path d="M177.836 35.0896C181.02 35.0896 183.424 35.7946 185.046 37.2048C186.684 38.6149 187.502 40.8135 187.502 43.8005V60.7447H183.704L182.681 57.1739H182.499C181.786 58.0837 181.051 58.8343 180.292 59.4256C179.534 60.0169 178.655 60.4567 177.654 60.7447C176.669 61.048 175.463 61.1996 174.038 61.1996C172.537 61.1996 171.195 60.9267 170.012 60.3808C168.83 59.8198 167.897 58.9707 167.215 57.8335C166.532 56.6963 166.191 55.2559 166.191 53.5122C166.191 50.9194 167.154 48.971 169.08 47.667C171.021 46.363 173.947 45.6428 177.859 45.5063L182.226 45.3471V44.028C182.226 42.2843 181.816 41.0409 180.998 40.2979C180.194 39.555 179.057 39.1835 177.586 39.1835C176.327 39.1835 175.107 39.3654 173.924 39.7293C172.741 40.0933 171.589 40.5406 170.467 41.0712L168.739 37.2957C169.967 36.6438 171.362 36.1131 172.923 35.7037C174.5 35.2943 176.138 35.0896 177.836 35.0896ZM182.203 48.7132L178.951 48.8269C176.282 48.9179 174.409 49.3728 173.333 50.1916C172.256 51.0103 171.718 52.1324 171.718 53.5577C171.718 54.801 172.09 55.7108 172.832 56.2869C173.575 56.848 174.553 57.1285 175.766 57.1285C177.616 57.1285 179.148 56.6053 180.361 55.5591C181.589 54.4977 182.203 52.9436 182.203 50.8966V48.7132Z" fill="white"/>
<path d="M214.461 52.1702C214.461 54.1565 213.961 55.8244 212.96 57.1739C211.959 58.5082 210.602 59.5165 208.889 60.1988C207.176 60.866 205.235 61.1996 203.067 61.1996C201.717 61.1996 200.489 61.1313 199.382 60.9949C198.29 60.8736 197.297 60.7068 196.403 60.4945C195.523 60.2822 194.72 60.0396 193.992 59.7667V57.4241C195.174 57.879 196.539 58.2808 198.086 58.6295C199.647 58.9631 201.346 59.1299 203.18 59.1299C204.909 59.1299 206.44 58.8797 207.775 58.3793C209.124 57.879 210.185 57.1208 210.959 56.1049C211.732 55.089 212.119 53.8078 212.119 52.2612C212.119 50.8966 211.793 49.7821 211.141 48.9178C210.504 48.0384 209.541 47.2879 208.252 46.6662C206.963 46.0294 205.341 45.385 203.385 44.733C202.02 44.2629 200.777 43.7701 199.655 43.2546C198.548 42.7239 197.6 42.1174 196.812 41.4351C196.024 40.7376 195.417 39.9037 194.993 38.9333C194.583 37.9477 194.378 36.7877 194.378 35.4534C194.378 33.6188 194.841 32.0797 195.766 30.8364C196.706 29.5779 197.972 28.6303 199.564 27.9934C201.171 27.3414 202.976 27.0154 204.977 27.0154C206.569 27.0154 208.078 27.1671 209.503 27.4703C210.944 27.7584 212.331 28.1981 213.665 28.7895L212.847 30.8137C211.512 30.2375 210.178 29.8129 208.844 29.54C207.509 29.2671 206.19 29.1306 204.886 29.1306C203.324 29.1306 201.929 29.3656 200.701 29.8357C199.488 30.2906 198.525 30.9805 197.813 31.9054C197.1 32.8303 196.744 33.9978 196.744 35.4079C196.744 36.8636 197.07 38.0387 197.722 38.9333C198.389 39.8278 199.329 40.5708 200.542 41.1622C201.77 41.7535 203.218 42.3297 204.886 42.8907C206.857 43.5579 208.555 44.2629 209.981 45.0059C211.406 45.7337 212.505 46.6586 213.279 47.7806C214.067 48.9027 214.461 50.3659 214.461 52.1702Z" fill="#F54C4C"/>
<path d="M227.676 59.2208C228.388 59.2208 229.048 59.1678 229.654 59.0616C230.276 58.9555 230.822 58.819 231.292 58.6522V60.5627C230.807 60.7295 230.238 60.8736 229.586 60.9949C228.934 61.1313 228.214 61.1996 227.425 61.1996C226.03 61.1996 224.87 60.9418 223.946 60.4263C223.021 59.8956 222.323 59.0995 221.853 58.0382C221.383 56.9616 221.148 55.597 221.148 53.9443V37.9325H217.464V36.5679L221.125 35.8628L221.921 30.0404H223.445V36.022H231.155V37.9325H223.445V53.8078C223.445 55.5818 223.771 56.9313 224.423 57.8562C225.09 58.766 226.174 59.2208 227.676 59.2208Z" fill="#F54C4C"/>
<path d="M257.106 48.3492C257.106 50.2597 256.871 52.0034 256.401 53.5804C255.931 55.1421 255.234 56.4916 254.309 57.6288C253.384 58.766 252.231 59.6454 250.852 60.2671C249.487 60.8887 247.895 61.1996 246.075 61.1996C244.347 61.1996 242.808 60.8963 241.458 60.2898C240.109 59.6681 238.964 58.7887 238.024 57.6515C237.099 56.5143 236.394 55.1648 235.909 53.6031C235.424 52.0262 235.181 50.2749 235.181 48.3492C235.181 45.6958 235.621 43.4138 236.5 41.5033C237.395 39.5777 238.668 38.1069 240.321 37.091C241.989 36.0599 243.983 35.5444 246.303 35.5444C248.699 35.5444 250.692 36.0903 252.285 37.182C253.892 38.2585 255.097 39.7596 255.901 41.6853C256.704 43.6109 257.106 45.8322 257.106 48.3492ZM237.546 48.3492C237.546 50.5175 237.857 52.4128 238.479 54.0352C239.101 55.6576 240.041 56.9237 241.299 57.8335C242.573 58.7432 244.18 59.1981 246.121 59.1981C248.107 59.1981 249.737 58.7432 251.011 57.8335C252.285 56.9237 253.225 55.65 253.831 54.0125C254.438 52.3749 254.741 50.4872 254.741 48.3492C254.741 46.272 254.453 44.4221 253.877 42.7997C253.3 41.1773 252.391 39.9037 251.147 38.9787C249.904 38.0387 248.282 37.5686 246.28 37.5686C243.414 37.5686 241.239 38.5239 239.753 40.4344C238.282 42.3448 237.546 44.9831 237.546 48.3492Z" fill="#F54C4C"/>
<path d="M273.778 35.5899C274.43 35.5899 275.044 35.6278 275.62 35.7036C276.196 35.7794 276.734 35.8856 277.235 36.022L276.871 38.1372C276.37 38.0008 275.862 37.9022 275.347 37.8415C274.831 37.7657 274.278 37.7278 273.687 37.7278C272.519 37.7278 271.473 37.9477 270.548 38.3874C269.638 38.8271 268.865 39.4564 268.228 40.2751C267.591 41.0939 267.106 42.0795 266.772 43.2319C266.439 44.3842 266.272 45.673 266.272 47.0983V60.7447H263.952V36.022H265.931L266.158 40.6845H266.295C266.674 39.7293 267.205 38.8726 267.887 38.1145C268.584 37.3412 269.426 36.7271 270.411 36.2722C271.397 35.8173 272.519 35.5899 273.778 35.5899Z" fill="#F54C4C"/>
<path d="M291.45 35.5444C293.557 35.5444 295.308 36.0372 296.703 37.0228C298.114 38.0083 299.16 39.3578 299.842 41.0712C300.54 42.7846 300.888 44.7481 300.888 46.9619V48.6222H283.034C283.034 52.0186 283.815 54.6266 285.377 56.4461C286.954 58.2656 289.206 59.1754 292.132 59.1754C293.663 59.1754 294.99 59.0541 296.112 58.8115C297.249 58.5537 298.508 58.1216 299.888 57.515V59.6302C298.675 60.1761 297.462 60.5703 296.249 60.8129C295.036 61.0707 293.641 61.1996 292.064 61.1996C289.562 61.1996 287.462 60.684 285.764 59.653C284.081 58.6068 282.807 57.136 281.943 55.2407C281.093 53.3453 280.669 51.1316 280.669 48.5994C280.669 46.1279 281.078 43.9066 281.897 41.9355C282.731 39.9643 283.944 38.4101 285.536 37.2729C287.143 36.1206 289.115 35.5444 291.45 35.5444ZM291.427 37.5231C289.061 37.5231 287.143 38.3116 285.673 39.8885C284.217 41.4503 283.36 43.7095 283.103 46.6662H298.5C298.5 44.8618 298.242 43.2698 297.727 41.89C297.211 40.5102 296.43 39.4412 295.384 38.6831C294.353 37.9098 293.034 37.5231 291.427 37.5231Z" fill="#F54C4C"/>
<path d="M30.6351 12.3678C33.7607 13.749 37.0844 14.6291 40.484 14.9757C45.7432 15.4451 51.8629 23.6163 61.7031 23.2773C71.5434 22.9383 71.3347 19.8958 71.3347 19.8958C71.4727 19.9172 71.6054 19.9644 71.7259 20.0349C72.7691 21.3736 71.865 23.1382 70.8566 24.277C70.4652 24.5426 70.0523 24.7752 69.6223 24.9724L68.6835 25.3375C66.0057 25.9302 63.258 26.1438 60.5209 25.9721C52.906 25.6678 47.0905 19.8871 40.1102 19.5568C33.1299 19.2264 27.1753 19.0787 30.6351 12.3678Z" fill="#F2F2F2"/>
<path d="M41.1706 9.09066C39.1191 6.96961 36.3026 6.15249 33.4427 5.9004C34.8596 3.47511 36.6069 1.14544 37.7891 0.684724C40.1883 -0.184555 40.1448 3.19694 41.9442 4.86596C43.7436 6.53498 48.4464 5.29191 48.4464 5.29191C46.647 2.68407 47.7163 1.36276 47.7163 1.36276C47.7163 1.36276 49.9851 -1.85357 53.8012 5.70916C57.6174 13.2719 59.0691 13.2806 64.928 14.7757C70.7869 16.2709 70.7522 19.6089 70.7522 19.6089C69.7699 21.2432 66.5101 22.2689 60.1383 22.3559C55.1834 22.4167 48.8985 17.4618 44.5608 15.0974C43.9424 12.8466 42.7779 10.7833 41.1706 9.09066Z" fill="#F54C4C"/>
<path d="M40.3709 9.84686C41.6262 11.1567 42.5944 12.714 43.2135 14.4193C42.6647 14.1575 42.0779 13.9844 41.4749 13.9064C37.9736 13.4013 34.5135 12.6431 31.1218 11.6376C31.1218 10.8378 31.8346 8.96889 32.8604 6.99563C35.5812 7.16079 38.3629 7.82144 40.3709 9.84686Z" fill="#F54C4C"/>
<path d="M54.2794 26.0502H11.2327L50.0895 24.3116C50.0895 24.3116 51.8976 24.9897 54.2794 26.0502Z" fill="url(#paint0_linear_119_1048)"/>
<path d="M48.9161 23.5988H6.32137L45.1782 21.8603C45.1782 21.8603 46.8385 22.7295 48.9161 23.5988Z" fill="url(#paint1_linear_119_1048)"/>
<path d="M43.483 21.1911H0.888306L31.852 19.609C33.5645 20.4 42.8571 20.2001 43.483 21.1911Z" fill="url(#paint2_linear_119_1048)"/>
<defs>
<linearGradient id="paint0_linear_119_1048" x1="266.667" y1="30.8723" x2="193.648" y2="32.0906" gradientUnits="userSpaceOnUse">
<stop stop-color="#F43838"/>
<stop offset="1" stop-color="#F45151"/>
</linearGradient>
<linearGradient id="paint1_linear_119_1048" x1="275.579" y1="17.4483" x2="131.166" y2="19.9027" gradientUnits="userSpaceOnUse">
<stop stop-color="#F43838"/>
<stop offset="1" stop-color="#F45151"/>
</linearGradient>
<linearGradient id="paint2_linear_119_1048" x1="38.7155" y1="20.3999" x2="14.9347" y2="21.9799" gradientUnits="userSpaceOnUse">
<stop stop-color="#F43838"/>
<stop offset="1" stop-color="#F45151"/>
</linearGradient>
</defs>
</svg>
